<svg viewBox="0 0 81 54" xmlns="http://www.w3.org/2000/svg" fill-rule="evenodd" clip-rule="evenodd" stroke-linejoin="round" stroke-miterlimit="2"><path fill="none" d="M.72.474h80V53.5h-80z"/><g fill="#72c3d2" fill-rule="nonzero"><path d="M8.715 21.432c-.147 0-.184-.073-.11-.183l.771-.991c.073-.11.257-.184.403-.184h13.104c.147 0 .184.11.11.22l-.624.955c-.073.11-.257.22-.367.22l-13.287-.037zm-5.542 3.377c-.147 0-.184-.073-.111-.183l.771-.991c.074-.11.257-.184.404-.184h16.737c.147 0 .221.11.184.22l-.294.881c-.036.147-.183.221-.33.221l-17.361.036zm8.882 3.377c-.147 0-.183-.11-.11-.22l.514-.918c.073-.11.22-.22.367-.22h7.341c.147 0 .22.11.22.257l-.073.881c0 .147-.147.257-.257.257l-8.002-.037zm38.1-7.414c-2.312.587-3.891 1.027-6.166 1.615-.551.146-.588.183-1.065-.367-.55-.624-.954-1.028-1.725-1.395-2.312-1.138-4.551-.808-6.644.55-2.496 1.615-3.78 4.001-3.744 6.974.037 2.937 2.056 5.359 4.956 5.763 2.496.33 4.588-.551 6.24-2.422.33-.404.623-.845.991-1.359h-7.085c-.77 0-.954-.477-.697-1.101.477-1.138 1.358-3.046 1.872-4.001.11-.22.367-.587.918-.587h13.36c-.073.991-.073 1.982-.22 2.973-.404 2.643-1.395 5.066-3.01 7.194-2.643 3.487-6.093 5.653-10.461 6.24-3.597.477-6.937-.22-9.873-2.422-2.717-2.056-4.258-4.772-4.662-8.149-.477-4.001.697-7.598 3.12-10.754 2.606-3.414 6.056-5.58 10.277-6.35 3.451-.624 6.754-.221 9.727 1.798 1.946 1.285 3.34 3.047 4.258 5.176.22.33.073.514-.367.624z"/><path d="M62.304 41.07c-3.34-.074-6.386-1.028-8.956-3.23-2.165-1.872-3.523-4.258-3.964-7.085-.66-4.147.477-7.818 2.973-11.085 2.68-3.523 5.91-5.358 10.278-6.129 3.744-.661 7.267-.294 10.461 1.872 2.899 1.982 4.698 4.661 5.175 8.185.624 4.955-.807 8.993-4.221 12.443-2.422 2.459-5.396 4.001-8.809 4.698-.991.184-1.982.22-2.937.331zm8.736-14.829c-.036-.477-.036-.845-.11-1.212-.661-3.633-4.001-5.689-7.488-4.881-3.413.77-5.616 2.936-6.423 6.386-.661 2.863.734 5.763 3.377 6.938 2.019.881 4.037.77 5.983-.221 2.899-1.505 4.478-3.854 4.661-7.01z"/></g></svg>