<svg viewBox="0 0 81 54" xmlns="http://www.w3.org/2000/svg" fill-rule="evenodd" clip-rule="evenodd" stroke-linejoin="round" stroke-miterlimit="2"><path fill="none" d="M.266.474h80V53.5h-80z"/><g fill="#838a8b" fill-rule="nonzero"><path d="M66.855 36.331s2.46 2.027-2.71 3.596c-9.83 2.977-40.914 3.877-49.549.118-3.104-1.35 2.717-3.224 4.548-3.617 1.909-.414 3.001-.337 3.001-.337-3.452-2.432-22.313 4.775-9.581 6.839 34.724 5.631 63.298-2.536 54.291-6.599M58.83 25.747c16.322-8.481 8.776-16.632 3.508-15.534-1.291.269-1.867.502-1.867.502s.48-.751 1.395-1.076c10.421-3.664 18.435 10.805-3.364 16.536 0 0 .253-.226.328-.428"/><path d="M24.686 32.076l-9.092-16.798c-.762-.617-.487-1.342 1.181-2.149 7.551-3.65 13.692-3.236 13.692-3.236s-15.812 3.755-5.6 5.119c4.312.577 12.908.447 20.915-.224 6.543-.552 13.113-1.726 13.113-1.726l-.219.097-4.751 20.191-.082.021.192.076c-13.351 5.721-29.455 2.213-29.349-1.371zM37.849 48.706c12.366.791 31.356-.44 31.806-6.291 0 0-.865 2.218-10.22 3.98-10.555 1.986-23.573 1.754-31.294.481 0 0 1.58 1.308 9.708 1.83"/></g></svg>