<?xml version="1.0" encoding="UTF-8" standalone="no"?><!DOCTYPE svg PUBLIC "-//W3C//DTD SVG 1.1//EN" "http://www.w3.org/Graphics/SVG/1.1/DTD/svg11.dtd"><svg width="100%" height="100%" viewBox="0 0 342 225" version="1.1" xmlns="http://www.w3.org/2000/svg" xmlns:xlink="http://www.w3.org/1999/xlink" xml:space="preserve" xmlns:serif="http://www.serif.com/" style="fill-rule:evenodd;clip-rule:evenodd;stroke-linejoin:round;stroke-miterlimit:2;"><rect id="python" x="3.896" y="0" width="337.5" height="225" style="fill:none;"/><path id="path1948" d="M171.535,18.149c-7.696,0.036 -15.046,0.692 -21.513,1.837c-19.05,3.365 -22.509,10.41 -22.509,23.401l-0,17.158l45.019,-0l0,5.719l-61.914,-0c-13.084,-0 -24.541,7.864 -28.124,22.824c-4.134,17.148 -4.317,27.849 -0,45.754c3.2,13.328 10.842,22.824 23.926,22.824l15.479,0l-0,-20.568c-0,-14.859 12.856,-27.966 28.123,-27.966l44.967,-0c12.517,-0 22.51,-10.306 22.51,-22.877l-0,-42.868c-0,-12.2 -10.293,-21.365 -22.51,-23.401c-7.734,-1.288 -15.758,-1.873 -23.454,-1.837Zm-24.346,13.8c4.65,-0 8.448,3.859 8.448,8.605c-0,4.728 -3.798,8.552 -8.448,8.552c-4.667,0 -8.448,-3.824 -8.448,-8.552c0,-4.746 3.781,-8.605 8.448,-8.605Z" style="fill:#f7c164;fill-rule:nonzero;"/><path id="path1950" d="M223.113,66.264l-0,19.991c-0,15.499 -13.14,28.543 -28.124,28.543l-44.967,0c-12.317,0 -22.509,10.542 -22.509,22.877l-0,42.868c-0,12.201 10.609,19.377 22.509,22.877c14.251,4.19 27.916,4.947 44.967,-0c11.334,-3.282 22.51,-9.886 22.51,-22.877l-0,-17.157l-44.967,-0l0,-5.72l67.476,0c13.084,0 17.96,-9.126 22.51,-22.824c4.7,-14.102 4.5,-27.663 -0,-45.754c-3.234,-13.025 -9.409,-22.824 -22.51,-22.824l-16.895,-0Zm-25.291,108.56c4.667,-0 8.448,3.824 8.448,8.553c0,4.745 -3.781,8.605 -8.448,8.605c-4.65,-0 -8.447,-3.86 -8.447,-8.605c-0,-4.729 3.797,-8.553 8.447,-8.553Z" style="fill:#f7c164;fill-rule:nonzero;"/></svg>