<svg viewBox="0 0 80 54" xmlns="http://www.w3.org/2000/svg" fill-rule="evenodd" clip-rule="evenodd" stroke-linejoin="round" stroke-miterlimit="2"><path fill="none" d="M0 0h80v53.026H0z"/><path d="M40.5 6l-1.79 2.329c-1.19.117-2.366.351-3.51.698L32.655 7.56l-.762 2.837a18.335 18.335 0 00-2.977 1.988l-2.912-.381.381 2.912a18.335 18.335 0 00-1.988 2.977l-2.837.762 1.467 2.545a18.245 18.245 0 00-.698 3.51L20 26.5l2.329 1.79c.117 1.19.351 2.366.698 3.51l-1.467 2.545 2.837.762a18.335 18.335 0 001.988 2.977l-.381 2.912 2.912-.381a18.335 18.335 0 002.977 1.988l.762 2.837 2.545-1.467c1.144.347 2.32.581 3.51.698L40.5 47l1.79-2.329a18.245 18.245 0 003.51-.698l2.545 1.467.762-2.837a18.335 18.335 0 002.977-1.988l2.912.381-.381-2.912a18.335 18.335 0 001.988-2.977l2.837-.762-1.467-2.545c.347-1.144.581-2.32.698-3.51L61 26.5l-2.329-1.79a18.245 18.245 0 00-.698-3.51l1.467-2.545-2.837-.762a18.335 18.335 0 00-1.988-2.977l.381-2.912-2.912.381a18.335 18.335 0 00-2.977-1.988l-.762-2.837L45.8 9.027a18.245 18.245 0 00-3.51-.698L40.5 6zm10.81 29.722a14.181 14.181 0 01-10.81 4.99 14.181 14.181 0 01-10.81-4.99h11.616v-4.833h-3.223v-1.611s1.735-.042 3.223 0c1.487.041 2.351 1.197 2.416 3.222.065 2.025 2.417 3.222 2.417 3.222h5.171zM26.74 22.933l4.093-.1v8.861h-3.564a14.153 14.153 0 01-.981-5.194c0-1.231.157-2.427.452-3.567zm27.836 5.539h-1.187v1.611c-1.284 2.849-3.222.806-3.222.806-.021-3.313-2.417-4.028-2.417-4.028s2.722-1.65 2.417-4.833C49.861 18.844 45.333 18 45.333 18H29.112c2.593-3.466 6.73-5.712 11.388-5.712 7.844 0 14.212 6.368 14.212 14.212 0 .669-.047 1.327-.136 1.972zm-16.493-5.639v1.611h4.834s.805 0 .805-.805c0-.806-.805-.806-.805-.806h-4.834z" fill="#4c5759"/></svg>