<svg viewBox="0 0 20 20" xmlns="http://www.w3.org/2000/svg" xml:space="preserve" style="fill-rule:evenodd;clip-rule:evenodd;stroke-linejoin:round;stroke-miterlimit:2"><path style="fill:none" d="M1335 5h37v37h-37z" transform="translate(-721.622 -2.703) scale(.54054)"/><circle cx="1345" cy="15" r="6" transform="matrix(.75 0 0 .75 -998.75 -1.25)"/><path d="M1345 8V7" style="fill:none" transform="translate(-1335 -5)"/><path d="M11 3V2c0-.552-.45-1-1-1s-1 .448-1 1v1c0 .552.45 1 1 1s1-.448 1-1ZM11 18v-1c0-.552-.45-1-1-1s-1 .448-1 1v1c0 .552.45 1 1 1s1-.448 1-1ZM3 9H2c-.552 0-1 .45-1 1s.448 1 1 1h1c.552 0 1-.45 1-1s-.448-1-1-1ZM18 9h-1c-.552 0-1 .45-1 1s.448 1 1 1h1c.552 0 1-.45 1-1s-.448-1-1-1ZM4.342 14.242l-.707.708a1.002 1.002 0 0 0 0 1.414c.389.389 1.024.39 1.414 0l.707-.707c.39-.39.39-1.026 0-1.415a1.002 1.002 0 0 0-1.414 0ZM14.949 3.636l-.707.707a1.002 1.002 0 0 0 0 1.414c.389.39 1.024.39 1.414 0l.707-.707c.39-.39.389-1.025 0-1.414a1.002 1.002 0 0 0-1.414 0ZM4.342 5.758l-.707-.708a1.002 1.002 0 0 1 0-1.414 1.002 1.002 0 0 1 1.414 0l.707.707c.39.39.39 1.026 0 1.415a1.002 1.002 0 0 1-1.414 0ZM14.949 16.364l-.707-.707a1.002 1.002 0 0 1 0-1.414 1.002 1.002 0 0 1 1.414 0l.707.707c.39.39.389 1.025 0 1.414a1.002 1.002 0 0 1-1.414 0Z"/></svg>